<svg width="14" height="18" viewBox="0 0 22 24" fill="none" xmlns="http://www.w3.org/2000/svg">
<path d="M2.38095 24H19.0476C20.3607 24 21.4286 22.9236 21.4286 21.6V3.6C21.4286 2.2764 20.3607 1.2 19.0476 1.2H16.6667C16.6667 0.88174 16.5412 0.576515 16.318 0.351472C16.0947 0.126428 15.7919 0 15.4762 0H5.95238C5.63665 0 5.33385 0.126428 5.11059 0.351472C4.88733 0.576515 4.7619 0.88174 4.7619 1.2H2.38095C1.06786 1.2 0 2.2764 0 3.6V21.6C0 22.9236 1.06786 24 2.38095 24ZM2.38095 3.6H4.7619V6H16.6667V3.6H19.0476V21.6H2.38095V3.6Z" fill="#68519D"/>
</svg>
